<?xml version="1.0" encoding="UTF-8"?>
<svg id="Layer_2" xmlns="http://www.w3.org/2000/svg" viewBox="0 0 453.41 133.52">
  <g id="_x31_">
    <g>
      <g>
        <path d="M75.85,55.86c-.13.61-.28,1.21-.4,1.82-.44,2.32-.88,4.64-1.31,6.96-.72,3.89-1.42,7.78-2.14,11.67-.51,2.76-1.02,5.51-1.54,8.27-.3,1.57-.61,3.13-.94,4.69-.06.3-.22.6-.4.86-.96,1.33-3,1.26-3.73-.17-.36-.71-.5-1.52-.62-2.3-.44-2.89-.83-5.8-1.22-8.69-.4-2.91-.78-5.83-1.18-8.74-.36-2.62-.74-5.23-1.11-7.85-.34-2.42-.66-4.84-.99-7.26-.26-1.86-.54-3.71-.8-5.57-.32-2.28-.64-4.56-.94-6.83-.09-.71-.03-1.41.39-2.06.89-1.36,2.88-1.4,3.75-.02.3.48.48,1.06.56,1.61.3,2.01.54,4.03.81,6.04.24,1.77.5,3.54.75,5.32.36,2.62.71,5.23,1.08,7.85.44,3.17.89,6.33,1.34,9.5.09.62.18,1.24.27,1.86.02.12.06.23.08.35.04,0,.09,0,.13.01.04-.12.1-.23.13-.35.25-1.36.49-2.72.75-4.07.42-2.24.86-4.47,1.27-6.71.51-2.79,1-5.57,1.52-8.36.47-2.55.97-5.09,1.45-7.64.34-1.83.68-3.67,1.01-5.5.11-.59.28-1.16.73-1.64,1.1-1.16,2.96-.99,3.61.41.36.79.5,1.66.63,2.51.52,3.39.98,6.78,1.48,10.17.51,3.47,1.05,6.94,1.57,10.41.46,3.13.9,6.27,1.36,9.41.08.53.2,1.05.3,1.58.05,0,.09.02.14.02.06-.12.16-.24.19-.36.41-1.95.8-3.91,1.2-5.86.74-3.66,1.48-7.31,2.21-10.97.5-2.53.98-5.06,1.48-7.59.43-2.14.87-4.27,1.34-6.4.09-.41.26-.83.51-1.18.95-1.31,2.75-1.26,3.66.07.48.71.51,1.49.37,2.27-.29,1.54-.61,3.07-.91,4.61-.56,2.82-1.13,5.64-1.69,8.46-.35,1.79-.68,3.58-1.04,5.37-.39,1.94-.81,3.88-1.2,5.82-.46,2.29-.9,4.58-1.36,6.87-.63,3.17-1.28,6.34-1.91,9.51-.29,1.47-.57,2.94-.89,4.4-.09.4-.26.8-.49,1.14-.93,1.38-2.82,1.39-3.74,0-.26-.39-.43-.87-.49-1.32-.48-3.16-.91-6.33-1.38-9.49-.41-2.74-.86-5.47-1.27-8.21-.41-2.77-.8-5.54-1.21-8.31-.29-2-.6-3.99-.9-5.99-.02-.12-.06-.24-.09-.36-.06,0-.12,0-.18,0Z"/>
        <path d="M24.34,55.06c-.24.77-.44,1.56-.74,2.32-.82,2.13-1.61,4.28-2.55,6.37-.36.8-1.02,1.55-1.7,2.19-1.29,1.2-3.13,1.29-4.7.35-1.34-.81-2.26-1.94-2.95-3.2-.84-1.53-1.58-3.1-2.32-4.67-.44-.94-.79-1.92-1.18-2.88-.07-.18-.19-.34-.29-.51-.04,0-.09,0-.13.01-.04.14-.1.27-.11.41-.2,2.6-.38,5.21-.58,7.81-.22,2.97-.45,5.94-.67,8.91-.3,4.02-.6,8.04-.9,12.05-.2,2.56-.41,5.12-.61,7.68-.08,1.02-.09,2.05-.25,3.05-.09.54-.34,1.11-.69,1.55-.83,1.05-2.4,1.02-3.29.01-.45-.51-.7-1.09-.67-1.74.08-1.36.16-2.72.26-4.08.23-3.1.47-6.2.72-9.3.21-2.69.44-5.37.64-8.06.26-3.4.49-6.79.75-10.19.35-4.6.71-9.2,1.05-13.8.15-2.12.22-4.25.41-6.37.06-.63.3-1.28.59-1.86.36-.71,1.07-1.09,1.98-1.05.94.04,1.51.56,1.9,1.26.08.14.15.29.17.44.33,1.92,1.19,3.7,1.83,5.54.75,2.16,1.47,4.32,2.33,6.44.84,2.09,1.83,4.15,2.78,6.2.2.43.51.82.8,1.21.11.16.31.27.46.4.13-.15.31-.28.38-.45.73-1.88,1.51-3.74,2.13-5.65,1.04-3.19,1.97-6.4,2.96-9.6.29-.94.56-1.9.94-2.81.25-.59.61-1.17,1.05-1.66.94-1.02,2.58-.94,3.34.19.36.54.58,1.21.65,1.84.37,3.3.66,6.61,1.01,9.91.41,3.87.86,7.73,1.27,11.6.2,1.84.34,3.67.52,5.51.29,2.84.6,5.67.9,8.51.25,2.39.49,4.77.74,7.16.2,1.88.41,3.75.61,5.63.09.81.08,1.61-.4,2.36-.86,1.32-2.74,1.42-3.66.12-.31-.44-.52-.99-.58-1.5-.42-3.7-.78-7.4-1.16-11.1-.35-3.39-.71-6.78-1.06-10.17-.35-3.4-.7-6.8-1.06-10.21-.2-1.91-.4-3.81-.6-5.72-.02-.17-.07-.34-.11-.5-.07,0-.13,0-.2,0Z"/>
        <path d="M103.46,55.74c-.11.46-.24.91-.33,1.38-.56,2.95-1.09,5.91-1.66,8.86-.57,2.93-1.18,5.86-1.75,8.79-.66,3.41-1.29,6.82-1.94,10.24-.21,1.13-.43,2.27-.67,3.4-.12.58-.38,1.11-.87,1.54-.89.78-2.21.76-3.02-.09-.65-.68-.9-1.47-.73-2.34.42-2.22.85-4.45,1.28-6.67.53-2.74,1.05-5.48,1.58-8.22.7-3.66,1.4-7.33,2.1-10.99.59-3.1,1.18-6.21,1.78-9.31.47-2.43.97-4.86,1.45-7.29.25-1.27.48-2.54.74-3.81.15-.76.57-1.39,1.37-1.76,1.02-.47,2.29-.11,2.82.86.28.51.46,1.09.56,1.66.61,3.52,1.17,7.04,1.76,10.56.57,3.41,1.17,6.81,1.75,10.22.4,2.37.8,4.74,1.2,7.11.06.38.12.76.2,1.13.03.13.1.25.15.37.05,0,.09,0,.14,0,.05-.15.12-.29.14-.45.4-2.74.79-5.49,1.19-8.23.57-3.94,1.15-7.87,1.72-11.81.35-2.45.68-4.9,1.04-7.34.08-.57.2-1.15.39-1.71.27-.79.87-1.33,1.83-1.46.88-.13,1.58.22,2.01.85.29.42.52.95.51,1.43-.02,1.12-.17,2.23-.32,3.34-.33,2.42-.69,4.84-1.04,7.26-.44,3.01-.88,6.02-1.31,9.03-.28,1.94-.52,3.89-.79,5.83-.41,2.87-.84,5.74-1.25,8.61-.19,1.34-.36,2.67-.56,4.01-.37,2.49-.73,4.98-1.13,7.46-.05.34-.24.68-.44.98-.9,1.35-2.84,1.35-3.72-.01-.26-.4-.42-.87-.5-1.32-.4-2.26-.74-4.52-1.13-6.78-.48-2.78-.99-5.55-1.46-8.32-.43-2.55-.82-5.11-1.25-7.66-.41-2.41-.84-4.82-1.26-7.23-.1-.57-.2-1.15-.3-1.72-.02-.12-.06-.24-.08-.36-.07,0-.13-.02-.2-.02Z"/>
        <path d="M57.62,68.27c-.14,5.51-.8,9.94-2.67,14.17-1.41,3.2-3.29,6.15-6.21,8.51-1.94,1.57-4.16,2.7-6.76,3.21-1.94.37-3.84-.72-4.11-2.46-.2-1.32-.31-2.65-.46-3.98-.31-2.77-.63-5.53-.93-8.3-.29-2.6-.55-5.19-.84-7.79-.19-1.68-.4-3.36-.6-5.03-.11-.99-.2-1.98-.31-2.96-.21-1.83-.45-3.66-.66-5.49-.32-2.82-.63-5.64-.95-8.46-.18-1.58-.37-3.16-.58-4.73-.25-1.86.47-2.84,2.07-3.82.92-.57,2.1-.45,3.19-.4,3.6.17,6.6,1.55,9.24,3.64,2.98,2.35,5.07,5.25,6.7,8.44,1.52,2.99,2.61,6.11,3.15,9.35.39,2.35.56,4.73.72,6.11ZM52.83,68.85c.04-2.54-.53-6.33-1.43-9.2-1.1-3.5-2.71-6.76-5.33-9.59-1.44-1.56-3.11-2.89-5.25-3.65-.87-.31-1.81-.47-2.73-.66-.34-.07-.61.03-.56.42.04.3.05.59.09.89.29,2.62.58,5.25.87,7.87.18,1.65.34,3.3.53,4.95.25,2.14.52,4.28.77,6.42.26,2.27.5,4.54.76,6.81.34,3.05.7,6.09,1.04,9.14.23,2.06.45,4.12.67,6.18.04.41.19.51.59.31.86-.43,1.77-.83,2.52-1.39,2.76-2.04,4.42-4.72,5.57-7.68,1.31-3.37,1.88-6.85,1.9-10.83Z"/>
        <path d="M138.51,68.1c-.2.07-.33.1-.45.16-3.12,1.38-6.25,1.37-9.39.07-.75-.31-1.45-.73-2.16-1.11-.43-.23-.53-.2-.57.22-.23,2.1-.46,4.21-.69,6.31-.32,2.91-.64,5.81-.96,8.72-.25,2.19-.48,4.38-.77,6.56-.06.48-.25.98-.52,1.4-.88,1.39-2.82,1.37-3.74,0-.46-.7-.49-1.46-.4-2.23.36-3.12.73-6.23,1.07-9.35.4-3.63.79-7.25,1.19-10.88.32-2.89.63-5.79.96-8.68.32-2.89.66-5.78.99-8.68.27-2.38.52-4.77.8-7.15.04-.37.18-.75.35-1.1.46-.89,1.27-1.36,2.16-1.3.89.06,1.75.67,2.03,1.55.13.4.21.84.16,1.26-.31,2.91-.66,5.81-.98,8.72-.29,2.6-.58,5.19-.84,7.79-.03.3.09.66.28.9,1.2,1.52,2.89,2.43,4.9,2.9,1.28.3,2.56.54,3.91.37,1.18-.15,2.28-.5,3.31-1,.19-.09.38-.33.41-.52.5-2.53.97-5.06,1.45-7.59.54-2.84,1.09-5.68,1.64-8.51.11-.57.36-1.08.8-1.52.92-.9,2.44-.85,3.27.13.62.73.75,1.55.58,2.43-.23,1.23-.48,2.46-.71,3.69-.42,2.18-.84,4.36-1.27,6.54-.74,3.76-1.49,7.51-2.22,11.27-.51,2.63-.97,5.26-1.46,7.89-.29,1.54-.59,3.07-.89,4.61-.59,3.03-1.19,6.06-1.77,9.1-.12.6-.34,1.15-.77,1.63-.85.92-2.32.94-3.2.05-.62-.63-.87-1.38-.72-2.18.41-2.32.88-4.64,1.33-6.96.28-1.48.55-2.97.83-4.45.58-3.01,1.17-6.01,1.76-9.01.1-.53.21-1.06.3-1.59.02-.12,0-.24,0-.42Z"/>
        <path d="M85.57,25.01c0-1.74,0-3.49,0-5.23,0-1.2.98-2.09,2.35-2.13,3.3-.11,6.19,1.57,7.57,4.38,1.64,3.34.27,7.42-3.16,9.41-1.26.73-2.66,1.11-4.17,1.17-1.82.07-2.44-.66-2.61-2.25-.15-1.32-.01-2.66,0-3.99,0-.45,0-.91,0-1.36.01,0,.03,0,.04,0ZM88.1,25.15s-.03,0-.05,0c0,1.56,0,3.12,0,4.67,0,.47.17.6.68.5.39-.07.79-.15,1.16-.28,2.67-.93,4.15-3.41,3.65-6.06-.39-2.07-2.14-3.68-4.42-4.06-.85-.14-1.02-.02-1.02.72,0,1.5,0,3,0,4.5Z"/>
        <path d="M54.94,16.77c.93.2,1.87.38,2.78.61.31.08.6.28.83.49.37.33.43.81.21,1.18-.24.4-.71.61-1.26.52-.35-.06-.68-.17-1.02-.27-1.12-.32-2.22-.28-3.3.13-.76.29-.92.8-.35,1.34.48.45,1.05.83,1.61,1.21.79.53,1.64,1,2.42,1.55,2.3,1.65,2.75,3.49,1.36,5.8-.97,1.61-2.41,2.8-4.47,3.26-2.18.48-5.99-.74-6.23-3.85-.04-.46.16-.94.34-1.39.14-.34.49-.59.94-.54.47.05.55.42.64.76.32,1.15,1.01,2.04,2.27,2.52.24.09.54.16.8.13,2.04-.26,3.54-1.15,3.91-2.99.11-.54-.05-1.07-.52-1.44-.71-.55-1.46-1.07-2.22-1.56-1.03-.67-2.15-1.25-2.94-2.18-1.49-1.76-.95-3.66,1.31-4.59.9-.37,1.83-.56,2.85-.57.01-.04.02-.08.03-.12Z"/>
        <path d="M102.42,26.3c.03-1.71.83-3.92,2.88-5.67,1.28-1.09,2.8-1.61,4.59-1.1,1.4.4,2.33,1.3,2.83,2.46,1.45,3.41.76,6.52-1.9,9.29-.67.69-1.54,1.16-2.55,1.4-1.77.42-3.58-.24-4.64-1.66-.82-1.1-1.2-2.36-1.22-4.72ZM110.94,25.17c-.03-.96-.2-1.82-.7-2.61-.67-1.04-1.73-1.29-2.83-.57-.48.31-.92.72-1.25,1.16-1.15,1.59-1.45,3.35-1.08,5.19.1.5.35,1.01.65,1.45.58.86,1.66,1.05,2.58.47.47-.3.91-.68,1.25-1.1.96-1.21,1.34-2.59,1.38-3.98Z"/>
        <path d="M83.09,22.91c-.02,2.33-.31,4.62-1.37,6.78-.28.57-.62,1.13-1.03,1.63-1.38,1.69-3.67,1.7-5.12.06-1.01-1.14-1.44-2.49-1.78-3.87-.65-2.65-.63-5.32-.17-7.99.06-.33.14-.67.27-.99.22-.52.78-.79,1.33-.71.58.09,1.03.53.98,1.1-.07.86-.28,1.71-.35,2.57-.2,2.35-.05,4.68.83,6.93.22.55.56,1.08.92,1.58.32.43.74.45,1.03,0,.46-.69.9-1.41,1.16-2.18.76-2.27.88-4.6.66-6.96-.05-.48-.12-.96-.13-1.44-.02-.64.42-1.12,1.04-1.2.61-.08,1.23.24,1.33.87.2,1.17.27,2.36.39,3.55,0,.08,0,.17,0,.26Z"/>
        <path d="M66.24,17.17c1.3,0,2.61,0,3.91,0,.33,0,.68.04.99.13.48.14.76.48.76.94,0,.45-.25.82-.73.97-.38.12-.81.15-1.22.17-.54.03-1.09.03-1.64.02-.4,0-.58.15-.6.51-.13,2.45-.26,4.9-.4,7.35-.05.81-.1,1.61-.17,2.42-.06.71-.58,1.18-1.26,1.17-.69,0-1.21-.49-1.19-1.2.03-1.35.11-2.69.18-4.04.1-1.87.21-3.74.33-5.61.03-.41-.16-.57-.61-.56-.8.02-1.61.07-2.41.03-.41-.02-.85-.15-1.2-.34-.38-.2-.5-.59-.39-.98.11-.41.4-.68.85-.79.26-.06.54-.09.81-.09,1.33,0,2.67,0,4,0,0-.03,0-.07,0-.1Z"/>
        <path d="M100.34,25.08c0,1.67,0,3.35,0,5.02,0,.03,0,.06,0,.09-.04.85-.55,1.39-1.3,1.37-.73-.02-1.22-.53-1.2-1.38.04-2.4.11-4.79.17-7.19.03-1.03.06-2.07.1-3.1.02-.48.21-.9.73-1.12.64-.27,1.4,0,1.61.59.1.28.14.58.14.88.01,1.62,0,3.23,0,4.85-.08,0-.17,0-.25,0Z"/>
      </g>
      <g>
        <g>
          <path d="M381.67,41.5s-.03,0-.04-.01c-.49.27-.95.58-1.46.8-1.37.62-2.81.71-4.27.43-.76-.14-1.18-.76-1.02-1.42.15-.62.69-.96,1.39-.85.7.11,1.4.14,2.1.02,1.28-.23,2.29-.84,2.87-2.05.1-.2.18-.42.22-.65.16-1.02.23-2.05.01-3.07-.04-.21-.09-.42-.19-.61-.55-1.12-1.48-1.49-2.8-1-.46.17-.84.49-1.18.85-.17.19-.37.38-.6.49-.69.34-1.48-.14-1.52-.91-.02-.37.07-.72.31-1.01,1.3-1.56,3.35-2.38,5.36-1.75,1.22.38,2.04,1.27,2.56,2.42.37.82.47,1.7.51,2.58.05,1.07-.23,2.88-.28,3.17-.2,1.09-1.95,2.57-1.98,2.54Z"/>
          <path d="M391.95,41.91c-.09-.01-.19-.04-.28-.04-2.2.11-4.64-1.85-5.18-4.13-.67-2.8,1.47-5.54,4.36-5.47,2.1.05,3.87,1.43,4.6,3.56.33.98.42,1.98.37,3-.03.56,0,.58.56.61,1.81.08,3.01-.84,3.43-2.61.14-.58.29-1.16.5-1.71.24-.66.84-.99,1.51-.93.63.06,1.17.53,1.26,1.2.07.49.02.99.02,1.49,0,.41-.06.83-.03,1.24.04.55.32.85.83.96.77.16,1.34,0,1.58-.49.15-.32.2-.69.3-1.03.17-.61.28-1.25.55-1.81.34-.72,1.31-.93,1.98-.5.15.1.22.35.3.54.12.31.23.63.32.95.06.2.14.41.14.61,0,.32-.09.63-.09.95,0,.47.36.84.83.89.39.05.62-.13.76-.66.07-.26.07-.55.12-.82.09-.49.17-.98.31-1.45.17-.55.69-.85,1.3-.83.68.02,1.15.36,1.33.94.23.72.25,1.44.13,2.18-.08.48-.05.94.41,1.27.29.21.58.23.81-.07.55-.74.96-1.55.96-2.51,0-.11-.02-.22-.02-.33,0-.9.42-1.47,1.14-1.53.88-.07,1.64.51,1.76,1.36.01.1.02.19.02.29-.05,1.75-.64,3.33-1.73,4.68-1.25,1.56-2.92,1.74-4.53.56-.47-.34-.85-.41-1.4-.21-1.17.42-2.31.19-3.36-.4-.39-.22-.68-.19-1.08,0-1.77.88-3.52.7-5.2-.27-.59-.34-.65-.37-1.18.02-1.01.73-2.12,1.14-3.39,1.06-.55-.03-1.11-.05-1.66,0-.22.02-.53.18-.62.36-1.32,2.72-3.5,4.55-6.11,5.92-.78.41-1.6.77-2.43,1.09-.36.14-.79.17-1.18.15-.55-.04-.92-.39-1.06-.92-.15-.55,0-1.03.47-1.37.22-.16.48-.27.74-.36,2.14-.81,4.12-1.89,5.68-3.59.48-.52.87-1.13,1.29-1.7-.04-.04-.08-.09-.12-.13ZM393.1,38.29c.04-.9-.18-1.93-.99-2.75-.59-.6-1.38-.72-2.14-.33-.68.35-1.02,1.05-.89,1.81.25,1.54,1.86,2.64,3.27,2.32.69-.16.7-.13.75-1.05Z"/>
          <path d="M360.32,40.84c-.31-.02-.52-.03-.74-.04-2.62-.15-4.98-2.63-4.98-5.25,0-1.81,1.15-3.46,2.87-4.11,1.82-.69,3.76-.21,5.05,1.23,1.25,1.39,1.7,3.05,1.62,4.88-.04.92.03,1,.93.86,1.24-.19,2.47-.39,3.54-1.12.92-.62,1.2-1.48,1.03-2.53-.05-.34-.13-.68-.15-1.03-.03-.54.24-.95.71-1.18.48-.24.97-.19,1.42.12.56.39.87.96.94,1.61.29,2.67-.46,4.51-3.01,5.82-1.8.93-3.71,1.2-5.69,1.09-.45-.02-.7.11-.88.5-1.08,2.35-2.85,4.09-5.05,5.38-1.13.66-2.34,1.2-3.54,1.74-.35.16-.79.18-1.18.16-.55-.03-.92-.36-1.09-.89-.17-.53,0-1.09.45-1.41.21-.15.46-.26.7-.35,2.18-.82,4.19-1.92,5.8-3.64.49-.52.94-1.09,1.26-1.85ZM361.4,37.33c.05-1.24-.28-2.21-1-2.93-.58-.58-1.37-.7-2.1-.33-.68.34-1.04,1.01-.93,1.79.21,1.55,1.79,2.66,3.2,2.4.8-.15.8-.13.84-.93Z"/>
          <path d="M403.97,29.49c-.18.5-.31,1.1-.61,1.59-.53.89-1.62,1.23-2.76.83-.72-.25-1.4-.66-2.09-.99-.32-.16-.64-.34-.97-.47-.44-.18-.73-.09-1.01.3-.15.2-.26.42-.39.64-.42.67-1.04.96-1.55.72-.58-.28-.82-1.11-.54-1.82.84-2.09,2.85-2.85,4.87-1.83.65.33,1.28.72,1.94,1.04.6.29.73.24,1.08-.32.23-.38.41-.79.67-1.15.13-.18.4-.37.59-.35.19.02.44.26.5.46.14.4.17.83.26,1.35Z"/>
          <path d="M371.65,44.2c-.07.37-.13.87-.28,1.34-.46,1.44-1.72,2.07-3.15,1.54-.57-.21-1.1-.51-1.64-.8-.65-.35-1-.29-1.47.29-.36.44-.71.89-1.1,1.3-.52.55-1.18.4-1.41-.33-.18-.56-.18-1.13.12-1.65.64-1.1,1.45-1.99,2.8-2.18.67-.09,1.3.03,1.89.34.47.24.93.48,1.39.73.27.15.45.06.58-.18.2-.38.36-.78.57-1.15.18-.33.36-.66.61-.93.14-.16.46-.3.63-.24.17.06.34.36.37.58.07.41.05.83.07,1.37Z"/>
        </g>
        <g>
          <path d="M425.77,86.24c-1.45,1.09-2.68,2.18-4.07,3.01-1.47.87-3.05,1.62-4.66,2.18-3.1,1.09-5.88.54-8.1-2.05-.09-.1-.21-.17-.33-.25-.03-.02-.09-.02-.11-.03-1.36.83-2.66,1.74-4.07,2.44-3.84,1.92-7.94,2.31-12.14,1.68-2.19-.33-3.44-2.05-3.07-3.93.35-1.79,1.86-2.82,3.88-2.57,2.01.24,4.01.26,5.99-.16,3.61-.78,6.46-2.62,7.98-6.14.26-.59.48-1.23.56-1.87.35-2.93.44-5.86-.28-8.76-.15-.58-.31-1.19-.59-1.71-1.68-3.14-4.39-4.1-8.09-2.57-1.3.54-2.36,1.48-3.28,2.56-.48.56-1.02,1.13-1.65,1.47-1.95,1.04-4.23-.25-4.43-2.44-.1-1.06.12-2.05.78-2.91,3.55-4.57,9.31-7.13,15.11-5.54,3.52.96,5.95,3.4,7.55,6.64,1.13,2.3,1.52,4.79,1.73,7.31.25,3.04-.16,6.05-.47,9.07-.08.79-.14,1.59-.09,2.37.08,1.22.36,1.37,1.51,1.01,1.86-.59,3.44-1.67,4.91-2.91,1.13-.96,2.17-2.05,3.18-3.14.86-.93,1.37-2.03,1.68-3.31,1.29-5.36,4.11-9.66,9.12-12.28,7.24-3.79,15.18-.34,17.95,7.07,1.77,4.73,1.44,9.41-.58,14.02-1.53,3.48-3.83,6.28-7.12,8.2-2.79,1.63-5.78,2.31-9.01,1.74-3.72-.66-6.49-2.7-8.47-5.86-.47-.74-.85-1.53-1.31-2.35ZM446.81,76.76c.02-1.59-.28-3.09-.95-4.5-1.58-3.38-4.89-4.62-8.28-3.09-.59.27-1.16.61-1.68.99-1.18.88-2.1,1.93-2.54,3.41-.4,1.33-1.03,2.6-1.54,3.9-.18.47-.4.96-.44,1.46-.16,1.89.06,3.71.9,5.45,1.66,3.43,5.26,4.69,8.58,2.81,4.04-2.27,5.62-6.02,5.95-10.44Z"/>
          <path d="M327.84,76.57c-.75.18-1.28.32-1.81.44-3.81.91-7.65,1.24-11.52.55-3.66-.65-6.54-2.47-8.09-5.97-1.14-2.58-1.09-5.32-.34-7.97,1.18-4.14,3.72-7.3,7.62-9.21,4.57-2.24,9.55-1.18,13.11,2.71,1.99,2.16,3.34,4.7,4.4,7.42,1.88,4.8,2.86,9.84,4.13,14.81.4,1.57.92,3.14,1.62,4.6,1,2.09,2.61,2.43,4.62,1.21,1.72-1.04,2.98-2.52,4.1-4.15,2.59-3.77,3.51-7.98,3.24-12.5-.04-.75-.11-1.49-.18-2.23-.1-1.08-.34-2.1-.93-3.04-.29-.45-.46-1.03-.52-1.57-.14-1.23.39-2.19,1.48-2.79,1.04-.57,2.08-.47,3.03.23,1.13.83,1.87,1.99,2.23,3.31.43,1.57.81,3.17.99,4.78.43,3.93.34,7.84-.99,11.62-1.92,5.46-5.02,10.06-10.36,12.65-4.09,1.99-9.04,1.16-11.92-3.29-1.5-2.31-2.24-4.91-2.91-7.53-.34-1.3-.64-2.61-1-4.09ZM326.1,70.01c-1.01-3.31-2.13-6.39-4.58-8.8-.3-.29-.65-.53-1.01-.75-1.11-.7-2.33-.82-3.49-.29-2.78,1.28-4.53,3.41-4.78,6.55-.2,2.61.85,3.93,3.45,4.35,1.1.18,2.23.25,3.35.22,2.33-.08,4.65-.23,7.05-1.28Z"/>
          <path d="M376,80.94c-.5,0-.73,0-.96,0-5.57.13-9.55-2.51-12.2-7.21-2.69-4.77-1.41-10.69,2.83-13.81,4.55-3.34,10.56-2.95,14.46.94,3.78,3.77,5.08,8.43,4.52,13.59-1.01,9.3-5.71,16.42-13.28,21.74-2.72,1.91-5.57,3.6-8.64,4.87-.88.36-1.89.53-2.85.56-1.35.03-2.44-.88-2.84-2.11-.42-1.29-.02-2.65,1.11-3.49.48-.36,1.04-.62,1.59-.85,4.67-2.02,8.95-4.65,12.43-8.4,1.26-1.36,2.23-2.98,3.29-4.51.22-.32.3-.75.52-1.33ZM378.13,72.35s.01,0,.02,0c-.01-.28-.02-.56-.04-.84-.19-2.31-.94-4.37-2.67-5.99-1.59-1.48-3.72-1.66-5.53-.49-1.71,1.11-2.29,3.09-1.52,5.18,1.37,3.7,5.01,5.46,8.82,4.31.65-.2.93-.55.92-1.2,0-.33,0-.65,0-.98Z"/>
          <path d="M311.14,37.66c-1.4,1.33-2.25,2.76-2.82,4.34-.73,2.02-1.29,4.07-1.01,6.29.2,1.64-.74,2.8-2.19,3.11-1.46.31-2.88-.48-3.42-2-.26-.74-.43-1.55-.43-2.32.01-4.87,1.44-9.28,4.53-13.09,1.01-1.24,2.2-2.28,3.76-2.81,2.2-.75,4.2-.32,5.82,1.27.87.86,1.53,1.99,2.08,3.1.81,1.63,1.37,3.37,2.16,5.01.44.91,1.03,1.79,1.73,2.51,1.15,1.2,2.72,1.22,4.04.2,1.34-1.03,1.95-2.5,2.2-4.09.42-2.69.48-5.39-.11-8.07-.23-1.02-.33-2.02.07-3.02.74-1.81,2.8-2.46,4.39-1.31.51.37.97.89,1.29,1.44.37.63.68,1.35.8,2.07.72,4.38.8,8.75-.77,12.98-1.23,3.31-3.51,5.69-6.9,6.88-3.92,1.38-8.44-.24-11.08-3.92-1.43-2-2.3-4.26-3.2-6.51-.25-.63-.57-1.24-.94-2.05Z"/>
          <path d="M341.38,51.38c2.37.09,4.2,2.05,4.12,4.41-.09,2.53-2.65,5.04-5,4.92-2.32-.12-4.24-2.16-4.17-4.43.08-2.81,2.35-5,5.06-4.9Z"/>
        </g>
      </g>
      <g>
        <path d="M290.65,57.92c4.78,36.61-19.92,70-56.59,74.97-36.94,5.02-70.64-20.48-75.58-57.11C153.54,39.15,179.39,5.52,216.33.59c36.05-4.81,69.16,20.44,74.32,57.33ZM165.62,76.49c2.7,16.69,11.35,31.59,26.91,41.95,16.06,10.7,33.52,13.33,51.93,7.16,16.6-5.56,28.72-16.49,36.18-32.3,7.08-15.01,8-30.61,2.6-46.3-6.68-19.39-19.93-32.51-39.36-39.11-12.46-4.23-25.1-4.3-37.57-.06-15.71,5.34-27.3,15.58-34.77,30.39-5.83,11.54-7.73,23.79-5.91,38.27Z"/>
        <path d="M241.6,61.77c5.94-.8,11.75-2.08,17.34-4.24,2.67-1.03,5.28-2.24,7.46-4.14.87-.75,1.66-1.63,2.31-2.58.97-1.41,1.09-2.96.3-4.55-.23-.46-.43-1-.43-1.51-.02-1.39,1.43-2.15,2.57-1.36.41.29.76.76.97,1.23,1.1,2.48,1.16,4.95-.09,7.43-.38.76-.67,1.62-.75,2.46-.52,5.35-.92,10.72-1.46,16.07-1.08,10.73-4.22,20.78-10.2,29.82-5.46,8.25-12.63,14.5-21.82,18.34-4.8,2.01-9.84,3.06-15,3.17-3.98.08-7.89-.81-11.6-2.39-6.15-2.62-11.19-6.72-15.58-11.68-6.45-7.29-10.93-15.72-14.21-24.83-2.76-7.67-4.33-15.6-4.88-23.71-.28-4.14,0-8.33.02-12.49,0-.05,0-.1.01-.14.2-1.47.95-2.24,2.08-2.13,1.04.1,1.67.97,1.52,2.4-.15,1.46.34,2.66,1.19,3.77,1.38,1.81,3.21,3.08,5.17,4.18,4.35,2.45,9.07,3.92,13.9,5.04,8.49,1.97,17.11,2.78,25.82,2.72,1.79-.01,3.59.02,5.38-.09,3.34-.21,6.66-.52,10-.79ZM247.41,64.27c-15.3,2.57-30.43,2.42-45.59-.48-.12.64-.22,1.11-.28,1.58-1.53,10.9-3.06,21.8-4.59,32.69-.18,1.3-.29,2.62-.66,3.86-.25.85-.04,1.37.46,1.96,2.59,3.1,5.42,5.95,8.67,8.36,6.92,5.14,14.56,7.3,23.13,5.68,1.24-.23,2.46-.54,3.67-.89,7.2-2.06,13.35-5.88,18.62-11.17.52-.52.72-1.06.64-1.82-.38-3.37-.7-6.75-1.04-10.13-.35-3.47-.69-6.95-1.03-10.42-.58-5.93-1.15-11.87-1.73-17.8-.04-.42-.15-.84-.26-1.43ZM184.71,57.84c-.16.29-.26.4-.29.54-.96,3.9-1.93,7.8-2.86,11.7-.08.35,0,.77.1,1.14.95,3.45,1.79,6.94,2.91,10.34,1.86,5.63,4.44,10.94,7.61,15.96.27.42.57.82.86,1.22.12-.03.24-.06.35-.09,1.66-11.85,3.35-23.7,4.98-35.66-4.81-1.29-9.35-2.77-13.66-5.15ZM254.98,101.16c.57-.83.97-1.43,1.37-2.02,3.58-5.26,6.08-11,7.84-17.1.85-2.94,1.31-5.85.53-8.86-.07-.28-.06-.58-.1-.87-.4-3.32-.78-6.64-1.22-9.95-.11-.88-.38-1.73-.56-2.52-4.04,1.32-7.89,2.58-11.73,3.83-.13,1.8,3.3,35.9,3.86,37.49Z"/>
        <path d="M231.37,46.66c-.02.33-.04.87-.11,1.39-.19,1.49-.41,2.97-.61,4.46-.02.14-.04.29-.08.43-.27,1.18-.94,1.76-1.86,1.61-.85-.14-1.38-.87-1.25-1.99.25-2.16.56-4.32.9-6.47.13-.85.76-1.32,1.5-1.3.82.02,1.36.63,1.51,1.88Z"/>
        <path d="M221.91,53.64c.04-.26.08-.64.17-1.01.39-1.49.78-2.98,1.2-4.47.12-.41.3-.82.55-1.16.4-.55.97-.78,1.66-.57.66.2,1.03.8.99,1.58-.01.29-.08.57-.15.85-.37,1.45-.72,2.9-1.13,4.34-.13.46-.32.92-.59,1.3-.4.57-1.02.71-1.68.55-.64-.16-.89-.68-1.03-1.41Z"/>
        <path d="M233.49,51.79c-.02-1.25-.06-2.51-.06-3.76,0-.28.08-.58.18-.84.26-.64.73-1.01,1.44-1.01.68,0,1.33.48,1.38,1.25.11,1.78.15,3.57.11,5.35-.01.73-.69,1.24-1.36,1.28-.7.04-1.26-.36-1.47-1.12-.1-.37-.11-.76-.16-1.14-.02,0-.04,0-.06,0Z"/>
      </g>
    </g>
  </g>
</svg>